<svg width="21" height="20" viewBox="0 0 21 20" fill="none" xmlns="http://www.w3.org/2000/svg">
<rect width="21" height="20" fill="#1E1E1E"/>
<g clip-path="url(#clip0_0_1)">
<rect width="1280" height="720" transform="translate(-500 -416)" fill="white"/>
<path d="M169.063 -278.904C35.0126 -266.096 -56.1667 -366.965 -85 -419H780V295.487V314L673.729 302.992C378.343 264.967 428.069 113.363 489.854 42.3147C525.937 -7.55267 591.183 -127.701 563.503 -209.357C528.903 -311.427 336.626 -294.915 169.063 -278.904Z" fill="#1E62B6"/>
<rect x="-11.25" y="-12.25" width="302.5" height="43.5" rx="3.25" stroke="black" stroke-width="1.5"/>
<path d="M16.2045 9.16666H4.38223C3.44949 9.16666 2.69334 9.91285 2.69334 10.8333V16.6667C2.69334 17.5871 3.44949 18.3333 4.38223 18.3333H16.2045C17.1372 18.3333 17.8933 17.5871 17.8933 16.6667V10.8333C17.8933 9.91285 17.1372 9.16666 16.2045 9.16666Z" stroke="black" stroke-linecap="round" stroke-linejoin="round"/>
<path d="M6.07112 9.16666V5.83332C6.07112 4.72825 6.51596 3.66845 7.30778 2.88704C8.0996 2.10564 9.17354 1.66666 10.2933 1.66666C11.4131 1.66666 12.4871 2.10564 13.2789 2.88704C14.0707 3.66845 14.5156 4.72825 14.5156 5.83332V9.16666" stroke="black" stroke-linecap="round" stroke-linejoin="round"/>
</g>
<defs>
<clipPath id="clip0_0_1">
<rect width="1280" height="720" fill="white" transform="translate(-500 -416)"/>
</clipPath>
</defs>
</svg>
